<svg xmlns="http://www.w3.org/2000/svg" xmlns:xlink="http://www.w3.org/1999/xlink" id="Capa_1" x="0px" y="0px" viewBox="0 0 512 512" style="enable-background:new 0 0 512 512;" xml:space="preserve" width="512" height="512"><g>	<g>		<path style="fill:none;stroke:#000000;stroke-width:15;stroke-linecap:round;stroke-linejoin:round;stroke-miterlimit:10;" d="&#10;&#9;&#9;&#9;M22.035,81.372c-9.106,12.93-14.444,28.639-14.444,45.58v274.477"></path>		<path style="fill:none;stroke:#000000;stroke-width:15;stroke-linecap:round;stroke-linejoin:round;stroke-miterlimit:10;" d="&#10;&#9;&#9;&#9;M88.583,47.006L88.583,47.006c-16.524,0-31.892,4.884-44.703,13.27"></path>		<path style="fill:none;stroke:#000000;stroke-width:15;stroke-linecap:round;stroke-linejoin:round;stroke-miterlimit:10;" d="&#10;&#9;&#9;&#9;M265.276,47.006L265.276,47.006c44.73,0,80.991,35.793,80.991,79.946l0.096,176.54"></path>					<polyline style="fill:none;stroke:#000000;stroke-width:15;stroke-linecap:round;stroke-linejoin:round;stroke-miterlimit:10;" points="&#10;&#9;&#9;&#9;53.247,216.333 53.247,274.741 301.013,274.741 301.013,216.503 &#9;&#9;"></polyline>		<path style="fill:none;stroke:#000000;stroke-width:15;stroke-linecap:round;stroke-linejoin:round;stroke-miterlimit:10;" d="&#10;&#9;&#9;&#9;M121.731,47.006H86.312l-32.704,89.03c-9.796,10.589-15.773,24.679-15.773,40.148s5.977,29.559,15.773,40.148v0.171h0.165&#10;&#9;&#9;&#9;c11.027,11.826,26.834,19.241,44.401,19.241"></path>		<path style="fill:none;stroke:#000000;stroke-width:15;stroke-linecap:round;stroke-linejoin:round;stroke-miterlimit:10;" d="&#10;&#9;&#9;&#9;M256.086,235.744c17.566,0,33.374-7.415,44.401-19.241h0.165v-0.171c9.796-10.589,15.773-24.679,15.773-40.148&#10;&#9;&#9;&#9;s-5.977-29.559-15.773-40.148l-32.704-89.03h-35.419"></path>		<g>			<path style="fill:none;stroke:#000000;stroke-width:15;stroke-linecap:round;stroke-linejoin:round;stroke-miterlimit:10;" d="&#10;&#9;&#9;&#9;&#9;M147.411,7.5v14.157c0,15.055-12.642,23.353-25.68,25.348v71.439c0,30.201,24.803,54.684,55.399,54.684h0&#10;&#9;&#9;&#9;&#9;c30.596,0,55.399-24.483,55.399-54.684V47.006c-13.315-1.591-26.659-9.906-26.659-25.348V7.5"></path>		</g>		<g>			<path style="fill:none;stroke:#000000;stroke-width:15;stroke-linecap:round;stroke-linejoin:round;stroke-miterlimit:10;" d="&#10;&#9;&#9;&#9;&#9;M321.256,303.491c-5.474-9.842-12.136-19.579-20.243-28.75h-123.38h-0.992H53.247C3.317,338.085,7.591,401.429,7.591,401.429&#10;&#9;&#9;&#9;&#9;H176.64h0.992h35.759"></path>			<g>				<path style="fill:none;stroke:#000000;stroke-width:15;stroke-linecap:round;stroke-linejoin:round;stroke-miterlimit:10;" d="&#10;&#9;&#9;&#9;&#9;&#9;M177.018,401.429h0.614H7.591c0,0-1.532,50.554,20.388,103.071"></path>			</g>		</g>		<path style="fill:none;stroke:#000000;stroke-width:15;stroke-linecap:round;stroke-linejoin:round;stroke-miterlimit:10;" d="&#10;&#9;&#9;&#9;M152.436,471.235l0.26,0.133c15.298,7.855,33.514,7.855,48.812,0l0.26-0.133"></path>					<line style="fill:none;stroke:#000000;stroke-width:15;stroke-linecap:round;stroke-linejoin:round;stroke-miterlimit:10;" x1="177.102" y1="483.899" x2="178.162" y2="504.5"></line>					<line style="fill:none;stroke:#000000;stroke-width:15;stroke-linecap:round;stroke-linejoin:round;stroke-miterlimit:10;" x1="176.64" y1="354.213" x2="176.64" y2="354.213"></line>	</g>	<g>		<g>			<path style="fill:none;stroke:#000000;stroke-width:15;stroke-linecap:round;stroke-linejoin:round;stroke-miterlimit:10;" d="&#10;&#9;&#9;&#9;&#9;M462.833,448.98l36.092-54.802c9.915-15.054,6.298-35.378-8.411-45.798c-41.944-29.712-93.05-45.038-136.743-45.038&#10;&#9;&#9;&#9;&#9;s-94.799,15.326-136.743,45.038c-14.709,10.42-18.326,30.744-8.411,45.798l63.111,95.828c5.253,7.976,14.153,12.78,23.704,12.786&#10;&#9;&#9;&#9;&#9;h116.68c9.551-0.006,18.451-4.81,23.704-12.786l10.617-16.121"></path>			<path style="fill:none;stroke:#000000;stroke-width:15;stroke-linecap:round;stroke-linejoin:round;stroke-miterlimit:10;" d="&#10;&#9;&#9;&#9;&#9;M351.376,467.232l70.912-114.803c4.59-5.416,13.011,0.624,9.353,6.708L380.07,481.981"></path>			<path style="fill:none;stroke:#000000;stroke-width:15;stroke-linecap:round;stroke-linejoin:round;stroke-miterlimit:10;" d="&#10;&#9;&#9;&#9;&#9;M320.226,502.792L320.226,502.792c0-18.527,15.019-33.545,33.545-33.545h0c18.526,0,33.545,15.019,33.545,33.545v0H320.226z"></path>		</g>		<g>			<g>									<line style="fill:none;stroke:#000000;stroke-width:15;stroke-linecap:round;stroke-linejoin:round;stroke-miterlimit:10;" x1="353.771" y1="340.963" x2="353.771" y2="358.957"></line>									<line style="fill:none;stroke:#000000;stroke-width:15;stroke-linecap:round;stroke-linejoin:round;stroke-miterlimit:10;" x1="316.348" y1="344.625" x2="319.473" y2="362.346"></line>									<line style="fill:none;stroke:#000000;stroke-width:15;stroke-linecap:round;stroke-linejoin:round;stroke-miterlimit:10;" x1="280.129" y1="354.729" x2="286.284" y2="371.639"></line>									<line style="fill:none;stroke:#000000;stroke-width:15;stroke-linecap:round;stroke-linejoin:round;stroke-miterlimit:10;" x1="246.215" y1="370.97" x2="255.213" y2="386.554"></line>			</g>			<g>									<line style="fill:none;stroke:#000000;stroke-width:15;stroke-linecap:round;stroke-linejoin:round;stroke-miterlimit:10;" x1="391.194" y1="344.625" x2="388.069" y2="362.346"></line>									<line style="fill:none;stroke:#000000;stroke-width:15;stroke-linecap:round;stroke-linejoin:round;stroke-miterlimit:10;" x1="461.327" y1="370.97" x2="452.329" y2="386.554"></line>			</g>		</g>	</g></g></svg>