<svg xmlns="http://www.w3.org/2000/svg" width="36" height="36" viewBox="0 0 36 36" fill="none"><path d="M34.7284 15.6994L32.3009 13.2723C31.7247 12.6961 31.2526 11.5575 31.2526 10.741V7.30844C31.2526 5.67558 29.9187 4.34166 28.2862 4.34079H24.8523C24.0367 4.34079 22.8968 3.86779 22.3206 3.29207L19.8935 0.864943C18.7402 -0.288314 16.8519 -0.288314 15.6987 0.864943L13.2715 3.29381C12.6949 3.86996 11.5537 4.34166 10.7399 4.34166H7.3073C5.67662 4.34166 4.34095 5.67558 4.34095 7.30844V10.7411C4.34095 11.5544 3.86891 12.6965 3.29267 13.2723L0.865106 15.6995C-0.28902 16.8527 -0.28902 18.741 0.865106 19.8961L3.29267 22.3232C3.86926 22.8994 4.34095 24.0411 4.34095 24.8544V28.2871C4.34095 29.9182 5.67662 31.2539 7.3073 31.2539H10.74C11.5555 31.2539 12.6954 31.7259 13.2716 32.3017L15.6988 34.7297C16.852 35.8821 18.7403 35.8821 19.8935 34.7297L22.3207 32.3017C22.8973 31.7256 24.0368 31.2539 24.8524 31.2539H28.2863C29.9187 31.2539 31.2527 29.9182 31.2527 28.2871V24.8544C31.2527 24.0376 31.7251 22.899 32.3009 22.3232L34.7285 19.8961C35.8808 18.741 35.8808 16.8526 34.7284 15.6994ZM15.4415 24.4712L8.89706 17.9259L10.9945 15.8289L15.4421 20.2764L24.5974 11.1233L26.6943 13.2203L15.4415 24.4712Z" fill="url(#paint0_linear_15_319)"></path><defs><linearGradient id="paint0_linear_15_319" x1="17.7961" y1="0" x2="17.7961" y2="35.594" gradientUnits="userSpaceOnUse"><stop stop-color="#1D7952"></stop><stop offset="1" stop-color="#2CD7B5"></stop></linearGradient></defs></svg>